<svg width="850" height="180" xmlns="http://www.w3.org/2000/svg" style="background-color: #0D1117; border-radius: 10px;"><style>.glow { filter: drop-shadow(0px 0px 4px #FF6B00); }</style><circle cx="20" cy="20" r="2" fill="#1F242C" opacity="0.3" class="" /><circle cx="20" cy="38" r="2" fill="#1F242C" opacity="0.3" class="" /><circle cx="20" cy="56" r="2" fill="#1F242C" opacity="0.3" class="" /><circle cx="20" cy="74" r="4" fill="#391800" opacity="0.6" class="" /><circle cx="20" cy="92" r="2" fill="#1F242C" opacity="0.3" class="" /><circle cx="20" cy="110" r="2" fill="#1F242C" opacity="0.3" class="" /><circle cx="20" cy="128" r="2" fill="#1F242C" opacity="0.3" class="" /><circle cx="38" cy="20" r="2" fill="#1F242C" opacity="0.3" class="" /><circle cx="38" cy="38" r="2" fill="#1F242C" opacity="0.3" class="" /><circle cx="38" cy="56" r="2" fill="#1F242C" opacity="0.3" class="" /><circle cx="38" cy="74" r="2" fill="#1F242C" opacity="0.3" class="" /><circle cx="38" cy="92" r="2" fill="#1F242C" opacity="0.3" class="" /><circle cx="38" cy="110" r="2" fill="#1F242C" opacity="0.3" class="" /><circle cx="38" cy="128" r="2" fill="#1F242C" opacity="0.3" class="" /><circle cx="56" cy="20" r="2" fill="#1F242C" opacity="0.3" class="" /><circle cx="56" cy="38" r="2" fill="#1F242C" opacity="0.3" class="" /><circle cx="56" cy="56" r="2" fill="#1F242C" opacity="0.3" class="" /><circle cx="56" cy="74" r="2" fill="#1F242C" opacity="0.3" class="" /><circle cx="56" cy="92" r="2" fill="#1F242C" opacity="0.3" class="" /><circle cx="56" cy="110" r="2" fill="#1F242C" opacity="0.3" class="" /><circle cx="56" cy="128" r="2" fill="#1F242C" opacity="0.3" class="" /><circle cx="74" cy="20" r="2" fill="#1F242C" opacity="0.3" class="" /><circle cx="74" cy="38" r="2" fill="#1F242C" opacity="0.3" class="" /><circle cx="74" cy="56" r="2" fill="#1F242C" opacity="0.3" class="" /><circle cx="74" cy="74" r="2" fill="#1F242C" opacity="0.3" class="" /><circle cx="74" cy="92" r="2" fill="#1F242C" opacity="0.3" class="" /><circle cx="74" cy="110" r="2" fill="#1F242C" opacity="0.3" class="" /><circle cx="74" cy="128" r="2" fill="#1F242C" opacity="0.3" class="" /><circle cx="92" cy="20" r="2" fill="#1F242C" opacity="0.3" class="" /><circle cx="92" cy="38" r="2" fill="#1F242C" opacity="0.3" class="" /><circle cx="92" cy="56" r="2" fill="#1F242C" opacity="0.3" class="" /><circle cx="92" cy="74" r="2" fill="#1F242C" opacity="0.3" class="" /><circle cx="92" cy="92" r="2" fill="#1F242C" opacity="0.3" class="" /><circle cx="92" cy="110" r="2" fill="#1F242C" opacity="0.3" class="" /><circle cx="92" cy="128" r="2" fill="#1F242C" opacity="0.3" class="" /><circle cx="110" cy="20" r="2" fill="#1F242C" opacity="0.3" class="" /><circle cx="110" cy="38" r="2" fill="#1F242C" opacity="0.3" class="" /><circle cx="110" cy="56" r="2" fill="#1F242C" opacity="0.3" class="" /><circle cx="110" cy="74" r="2" fill="#1F242C" opacity="0.3" class="" /><circle cx="110" cy="92" r="2" fill="#1F242C" opacity="0.3" class="" /><circle cx="110" cy="110" r="2" fill="#1F242C" opacity="0.3" class="" /><circle cx="110" cy="128" r="2" fill="#1F242C" opacity="0.3" class="" /><circle cx="128" cy="20" r="2" fill="#1F242C" opacity="0.3" class="" /><circle cx="128" cy="38" r="2" fill="#1F242C" opacity="0.3" class="" /><circle cx="128" cy="56" r="2" fill="#1F242C" opacity="0.3" class="" /><circle cx="128" cy="74" r="2" fill="#1F242C" opacity="0.3" class="" /><circle cx="128" cy="92" r="2" fill="#1F242C" opacity="0.3" class="" /><circle cx="128" cy="110" r="2" fill="#1F242C" opacity="0.3" class="" /><circle cx="128" cy="128" r="2" fill="#1F242C" opacity="0.3" class="" /><circle cx="146" cy="20" r="2" fill="#1F242C" opacity="0.3" class="" /><circle cx="146" cy="38" r="2" fill="#1F242C" opacity="0.3" class="" /><circle cx="146" cy="56" r="2" fill="#1F242C" opacity="0.3" class="" /><circle cx="146" cy="74" r="2" fill="#1F242C" opacity="0.3" class="" /><circle cx="146" cy="92" r="2" fill="#1F242C" opacity="0.3" class="" /><circle cx="146" cy="110" r="2" fill="#1F242C" opacity="0.3" class="" /><circle cx="146" cy="128" r="2" fill="#1F242C" opacity="0.3" class="" /><circle cx="164" cy="20" r="2" fill="#1F242C" opacity="0.3" class="" /><circle cx="164" cy="38" r="2" fill="#1F242C" opacity="0.3" class="" /><circle cx="164" cy="56" r="4" fill="#391800" opacity="0.6" class="" /><circle cx="164" cy="74" r="2" fill="#1F242C" opacity="0.3" class="" /><circle cx="164" cy="92" r="2" fill="#1F242C" opacity="0.3" class="" /><circle cx="164" cy="110" r="2" fill="#1F242C" opacity="0.3" class="" /><circle cx="164" cy="128" r="2" fill="#1F242C" opacity="0.3" class="" /><circle cx="182" cy="20" r="2" fill="#1F242C" opacity="0.3" class="" /><circle cx="182" cy="38" r="2" fill="#1F242C" opacity="0.3" class="" /><circle cx="182" cy="56" r="2" fill="#1F242C" opacity="0.3" class="" /><circle cx="182" cy="74" r="2" fill="#1F242C" opacity="0.3" class="" /><circle cx="182" cy="92" r="2" fill="#1F242C" opacity="0.3" class="" /><circle cx="182" cy="110" r="2" fill="#1F242C" opacity="0.3" class="" /><circle cx="182" cy="128" r="2" fill="#1F242C" opacity="0.3" class="" /><circle cx="200" cy="20" r="2" fill="#1F242C" opacity="0.3" class="" /><circle cx="200" cy="38" r="2" fill="#1F242C" opacity="0.3" class="" /><circle cx="200" cy="56" r="2" fill="#1F242C" opacity="0.3" class="" /><circle cx="200" cy="74" r="2" fill="#1F242C" opacity="0.3" class="" /><circle cx="200" cy="92" r="2" fill="#1F242C" opacity="0.3" class="" /><circle cx="200" cy="110" r="2" fill="#1F242C" opacity="0.3" class="" /><circle cx="200" cy="128" r="2" fill="#1F242C" opacity="0.3" class="" /><circle cx="218" cy="20" r="2" fill="#1F242C" opacity="0.3" class="" /><circle cx="218" cy="38" r="2" fill="#1F242C" opacity="0.3" class="" /><circle cx="218" cy="56" r="2" fill="#1F242C" opacity="0.3" class="" /><circle cx="218" cy="74" r="2" fill="#1F242C" opacity="0.3" class="" /><circle cx="218" cy="92" r="2" fill="#1F242C" opacity="0.3" class="" /><circle cx="218" cy="110" r="2" fill="#1F242C" opacity="0.3" class="" /><circle cx="218" cy="128" r="2" fill="#1F242C" opacity="0.3" class="" /><circle cx="236" cy="20" r="2" fill="#1F242C" opacity="0.3" class="" /><circle cx="236" cy="38" r="2" fill="#1F242C" opacity="0.3" class="" /><circle cx="236" cy="56" r="2" fill="#1F242C" opacity="0.3" class="" /><circle cx="236" cy="74" r="2" fill="#1F242C" opacity="0.3" class="" /><circle cx="236" cy="92" r="2" fill="#1F242C" opacity="0.3" class="" /><circle cx="236" cy="110" r="2" fill="#1F242C" opacity="0.3" class="" /><circle cx="236" cy="128" r="2" fill="#1F242C" opacity="0.3" class="" /><circle cx="254" cy="20" r="2" fill="#1F242C" opacity="0.3" class="" /><circle cx="254" cy="38" r="2" fill="#1F242C" opacity="0.3" class="" /><circle cx="254" cy="56" r="2" fill="#1F242C" opacity="0.3" class="" /><circle cx="254" cy="74" r="2" fill="#1F242C" opacity="0.3" class="" /><circle cx="254" cy="92" r="2" fill="#1F242C" opacity="0.3" class="" /><circle cx="254" cy="110" r="2" fill="#1F242C" opacity="0.3" class="" /><circle cx="254" cy="128" r="2" fill="#1F242C" opacity="0.3" class="" /><circle cx="272" cy="20" r="2" fill="#1F242C" opacity="0.3" class="" /><circle cx="272" cy="38" r="2" fill="#1F242C" opacity="0.3" class="" /><circle cx="272" cy="56" r="2" fill="#1F242C" opacity="0.3" class="" /><circle cx="272" cy="74" r="2" fill="#1F242C" opacity="0.3" class="" /><circle cx="272" cy="92" r="2" fill="#1F242C" opacity="0.3" class="" /><circle cx="272" cy="110" r="2" fill="#1F242C" opacity="0.3" class="" /><circle cx="272" cy="128" r="2" fill="#1F242C" opacity="0.3" class="" /><circle cx="290" cy="20" r="2" fill="#1F242C" opacity="0.3" class="" /><circle cx="290" cy="38" r="2" fill="#1F242C" opacity="0.3" class="" /><circle cx="290" cy="56" r="2" fill="#1F242C" opacity="0.3" class="" /><circle cx="290" cy="74" r="2" fill="#1F242C" opacity="0.3" class="" /><circle cx="290" cy="92" r="2" fill="#1F242C" opacity="0.3" class="" /><circle cx="290" cy="110" r="2" fill="#1F242C" opacity="0.3" class="" /><circle cx="290" cy="128" r="2" fill="#1F242C" opacity="0.3" class="" /><circle cx="308" cy="20" r="2" fill="#1F242C" opacity="0.3" class="" /><circle cx="308" cy="38" r="2" fill="#1F242C" opacity="0.3" class="" /><circle cx="308" cy="56" r="2" fill="#1F242C" opacity="0.3" class="" /><circle cx="308" cy="74" r="2" fill="#1F242C" opacity="0.3" class="" /><circle cx="308" cy="92" r="2" fill="#1F242C" opacity="0.3" class="" /><circle cx="308" cy="110" r="2" fill="#1F242C" opacity="0.3" class="" /><circle cx="308" cy="128" r="2" fill="#1F242C" opacity="0.3" class="" /><circle cx="326" cy="20" r="2" fill="#1F242C" opacity="0.3" class="" /><circle cx="326" cy="38" r="2" fill="#1F242C" opacity="0.3" class="" /><circle cx="326" cy="56" r="2" fill="#1F242C" opacity="0.3" class="" /><circle cx="326" cy="74" r="2" fill="#1F242C" opacity="0.3" class="" /><circle cx="326" cy="92" r="2" fill="#1F242C" opacity="0.3" class="" /><circle cx="326" cy="110" r="2" fill="#1F242C" opacity="0.3" class="" /><circle cx="326" cy="128" r="2" fill="#1F242C" opacity="0.3" class="" /><circle cx="344" cy="20" r="2" fill="#1F242C" opacity="0.3" class="" /><circle cx="344" cy="38" r="2" fill="#1F242C" opacity="0.3" class="" /><circle cx="344" cy="56" r="2" fill="#1F242C" opacity="0.3" class="" /><circle cx="344" cy="74" r="2" fill="#1F242C" opacity="0.3" class="" /><circle cx="344" cy="92" r="2" fill="#1F242C" opacity="0.3" class="" /><circle cx="344" cy="110" r="2" fill="#1F242C" opacity="0.3" class="" /><circle cx="344" cy="128" r="2" fill="#1F242C" opacity="0.3" class="" /><circle cx="362" cy="20" r="2" fill="#1F242C" opacity="0.3" class="" /><circle cx="362" cy="38" r="2" fill="#1F242C" opacity="0.3" class="" /><circle cx="362" cy="56" r="2" fill="#1F242C" opacity="0.3" class="" /><circle cx="362" cy="74" r="2" fill="#1F242C" opacity="0.3" class="" /><circle cx="362" cy="92" r="2" fill="#1F242C" opacity="0.3" class="" /><circle cx="362" cy="110" r="2" fill="#1F242C" opacity="0.3" class="" /><circle cx="362" cy="128" r="2" fill="#1F242C" opacity="0.3" class="" /><circle cx="380" cy="20" r="2" fill="#1F242C" opacity="0.3" class="" /><circle cx="380" cy="38" r="2" fill="#1F242C" opacity="0.3" class="" /><circle cx="380" cy="56" r="2" fill="#1F242C" opacity="0.3" class="" /><circle cx="380" cy="74" r="2" fill="#1F242C" opacity="0.3" class="" /><circle cx="380" cy="92" r="2" fill="#1F242C" opacity="0.3" class="" /><circle cx="380" cy="110" r="2" fill="#1F242C" opacity="0.3" class="" /><circle cx="380" cy="128" r="2" fill="#1F242C" opacity="0.3" class="" /><circle cx="398" cy="20" r="2" fill="#1F242C" opacity="0.3" class="" /><circle cx="398" cy="38" r="2" fill="#1F242C" opacity="0.3" class="" /><circle cx="398" cy="56" r="2" fill="#1F242C" opacity="0.3" class="" /><circle cx="398" cy="74" r="2" fill="#1F242C" opacity="0.3" class="" /><circle cx="398" cy="92" r="2" fill="#1F242C" opacity="0.3" class="" /><circle cx="398" cy="110" r="2" fill="#1F242C" opacity="0.3" class="" /><circle cx="398" cy="128" r="2" fill="#1F242C" opacity="0.3" class="" /><circle cx="416" cy="20" r="2" fill="#1F242C" opacity="0.3" class="" /><circle cx="416" cy="38" r="2" fill="#1F242C" opacity="0.3" class="" /><circle cx="416" cy="56" r="2" fill="#1F242C" opacity="0.3" class="" /><circle cx="416" cy="74" r="2" fill="#1F242C" opacity="0.3" class="" /><circle cx="416" cy="92" r="2" fill="#1F242C" opacity="0.3" class="" /><circle cx="416" cy="110" r="2" fill="#1F242C" opacity="0.3" class="" /><circle cx="416" cy="128" r="2" fill="#1F242C" opacity="0.3" class="" /><circle cx="434" cy="20" r="2" fill="#1F242C" opacity="0.3" class="" /><circle cx="434" cy="38" r="2" fill="#1F242C" opacity="0.3" class="" /><circle cx="434" cy="56" r="2" fill="#1F242C" opacity="0.3" class="" /><circle cx="434" cy="74" r="2" fill="#1F242C" opacity="0.3" class="" /><circle cx="434" cy="92" r="2" fill="#1F242C" opacity="0.3" class="" /><circle cx="434" cy="110" r="2" fill="#1F242C" opacity="0.3" class="" /><circle cx="434" cy="128" r="2" fill="#1F242C" opacity="0.3" class="" /><circle cx="452" cy="20" r="2" fill="#1F242C" opacity="0.3" class="" /><circle cx="452" cy="38" r="2" fill="#1F242C" opacity="0.3" class="" /><circle cx="452" cy="56" r="2" fill="#1F242C" opacity="0.3" class="" /><circle cx="452" cy="74" r="2" fill="#1F242C" opacity="0.3" class="" /><circle cx="452" cy="92" r="2" fill="#1F242C" opacity="0.3" class="" /><circle cx="452" cy="110" r="2" fill="#1F242C" opacity="0.3" class="" /><circle cx="452" cy="128" r="2" fill="#1F242C" opacity="0.3" class="" /><circle cx="470" cy="20" r="2" fill="#1F242C" opacity="0.3" class="" /><circle cx="470" cy="38" r="2" fill="#1F242C" opacity="0.3" class="" /><circle cx="470" cy="56" r="2" fill="#1F242C" opacity="0.3" class="" /><circle cx="470" cy="74" r="2" fill="#1F242C" opacity="0.3" class="" /><circle cx="470" cy="92" r="2" fill="#1F242C" opacity="0.3" class="" /><circle cx="470" cy="110" r="2" fill="#1F242C" opacity="0.3" class="" /><circle cx="470" cy="128" r="2" fill="#1F242C" opacity="0.3" class="" /><circle cx="488" cy="20" r="2" fill="#1F242C" opacity="0.3" class="" /><circle cx="488" cy="38" r="2" fill="#1F242C" opacity="0.3" class="" /><circle cx="488" cy="56" r="2" fill="#1F242C" opacity="0.3" class="" /><circle cx="488" cy="74" r="2" fill="#1F242C" opacity="0.3" class="" /><circle cx="488" cy="92" r="2" fill="#1F242C" opacity="0.3" class="" /><circle cx="488" cy="110" r="2" fill="#1F242C" opacity="0.3" class="" /><circle cx="488" cy="128" r="2" fill="#1F242C" opacity="0.3" class="" /><circle cx="506" cy="20" r="2" fill="#1F242C" opacity="0.3" class="" /><circle cx="506" cy="38" r="2" fill="#1F242C" opacity="0.3" class="" /><circle cx="506" cy="56" r="2" fill="#1F242C" opacity="0.3" class="" /><circle cx="506" cy="74" r="2" fill="#1F242C" opacity="0.3" class="" /><circle cx="506" cy="92" r="2" fill="#1F242C" opacity="0.3" class="" /><circle cx="506" cy="110" r="2" fill="#1F242C" opacity="0.3" class="" /><circle cx="506" cy="128" r="2" fill="#1F242C" opacity="0.3" class="" /><circle cx="524" cy="20" r="2" fill="#1F242C" opacity="0.3" class="" /><circle cx="524" cy="38" r="2" fill="#1F242C" opacity="0.3" class="" /><circle cx="524" cy="56" r="2" fill="#1F242C" opacity="0.3" class="" /><circle cx="524" cy="74" r="2" fill="#1F242C" opacity="0.3" class="" /><circle cx="524" cy="92" r="2" fill="#1F242C" opacity="0.3" class="" /><circle cx="524" cy="110" r="2" fill="#1F242C" opacity="0.3" class="" /><circle cx="524" cy="128" r="2" fill="#1F242C" opacity="0.3" class="" /><circle cx="542" cy="20" r="2" fill="#1F242C" opacity="0.3" class="" /><circle cx="542" cy="38" r="2" fill="#1F242C" opacity="0.3" class="" /><circle cx="542" cy="56" r="2" fill="#1F242C" opacity="0.3" class="" /><circle cx="542" cy="74" r="2" fill="#1F242C" opacity="0.3" class="" /><circle cx="542" cy="92" r="2" fill="#1F242C" opacity="0.3" class="" /><circle cx="542" cy="110" r="2" fill="#1F242C" opacity="0.3" class="" /><circle cx="542" cy="128" r="2" fill="#1F242C" opacity="0.3" class="" /><circle cx="560" cy="20" r="2" fill="#1F242C" opacity="0.3" class="" /><circle cx="560" cy="38" r="2" fill="#1F242C" opacity="0.3" class="" /><circle cx="560" cy="56" r="2" fill="#1F242C" opacity="0.3" class="" /><circle cx="560" cy="74" r="2" fill="#1F242C" opacity="0.3" class="" /><circle cx="560" cy="92" r="2" fill="#1F242C" opacity="0.3" class="" /><circle cx="560" cy="110" r="2" fill="#1F242C" opacity="0.3" class="" /><circle cx="560" cy="128" r="2" fill="#1F242C" opacity="0.3" class="" /><circle cx="578" cy="20" r="2" fill="#1F242C" opacity="0.3" class="" /><circle cx="578" cy="38" r="2" fill="#1F242C" opacity="0.3" class="" /><circle cx="578" cy="56" r="2" fill="#1F242C" opacity="0.3" class="" /><circle cx="578" cy="74" r="2" fill="#1F242C" opacity="0.3" class="" /><circle cx="578" cy="92" r="2" fill="#1F242C" opacity="0.3" class="" /><circle cx="578" cy="110" r="2" fill="#1F242C" opacity="0.3" class="" /><circle cx="578" cy="128" r="2" fill="#1F242C" opacity="0.3" class="" /><circle cx="596" cy="20" r="2" fill="#1F242C" opacity="0.3" class="" /><circle cx="596" cy="38" r="2" fill="#1F242C" opacity="0.3" class="" /><circle cx="596" cy="56" r="2" fill="#1F242C" opacity="0.3" class="" /><circle cx="596" cy="74" r="2" fill="#1F242C" opacity="0.3" class="" /><circle cx="596" cy="92" r="2" fill="#1F242C" opacity="0.3" class="" /><circle cx="596" cy="110" r="2" fill="#1F242C" opacity="0.3" class="" /><circle cx="596" cy="128" r="2" fill="#1F242C" opacity="0.3" class="" /><circle cx="614" cy="20" r="2" fill="#1F242C" opacity="0.3" class="" /><circle cx="614" cy="38" r="2" fill="#1F242C" opacity="0.3" class="" /><circle cx="614" cy="56" r="2" fill="#1F242C" opacity="0.3" class="" /><circle cx="614" cy="74" r="2" fill="#1F242C" opacity="0.3" class="" /><circle cx="614" cy="92" r="2" fill="#1F242C" opacity="0.3" class="" /><circle cx="614" cy="110" r="2" fill="#1F242C" opacity="0.3" class="" /><circle cx="614" cy="128" r="2" fill="#1F242C" opacity="0.3" class="" /><circle cx="632" cy="20" r="2" fill="#1F242C" opacity="0.3" class="" /><circle cx="632" cy="38" r="2" fill="#1F242C" opacity="0.3" class="" /><circle cx="632" cy="56" r="2" fill="#1F242C" opacity="0.3" class="" /><circle cx="632" cy="74" r="6" fill="#FF6B00" opacity="0.8" class="glow" /><circle cx="632" cy="92" r="2" fill="#1F242C" opacity="0.3" class="" /><circle cx="632" cy="110" r="2" fill="#1F242C" opacity="0.3" class="" /><circle cx="632" cy="128" r="2" fill="#1F242C" opacity="0.3" class="" /><circle cx="650" cy="20" r="2" fill="#1F242C" opacity="0.3" class="" /><circle cx="650" cy="38" r="2" fill="#1F242C" opacity="0.3" class="" /><circle cx="650" cy="56" r="2" fill="#1F242C" opacity="0.3" class="" /><circle cx="650" cy="74" r="2" fill="#1F242C" opacity="0.3" class="" /><circle cx="650" cy="92" r="2" fill="#1F242C" opacity="0.3" class="" /><circle cx="650" cy="110" r="2" fill="#1F242C" opacity="0.3" class="" /><circle cx="650" cy="128" r="2" fill="#1F242C" opacity="0.3" class="" /><circle cx="668" cy="20" r="4" fill="#391800" opacity="0.6" class="" /><circle cx="668" cy="38" r="4" fill="#391800" opacity="0.6" class="" /><circle cx="668" cy="56" r="2" fill="#1F242C" opacity="0.3" class="" /><circle cx="668" cy="74" r="2" fill="#1F242C" opacity="0.3" class="" /><circle cx="668" cy="92" r="2" fill="#1F242C" opacity="0.3" class="" /><circle cx="668" cy="110" r="2" fill="#1F242C" opacity="0.3" class="" /><circle cx="668" cy="128" r="6" fill="#FF6B00" opacity="0.8" class="glow" /><circle cx="686" cy="20" r="2" fill="#1F242C" opacity="0.3" class="" /><circle cx="686" cy="38" r="2" fill="#1F242C" opacity="0.3" class="" /><circle cx="686" cy="56" r="2" fill="#1F242C" opacity="0.3" class="" /><circle cx="686" cy="74" r="2" fill="#1F242C" opacity="0.3" class="" /><circle cx="686" cy="92" r="2" fill="#1F242C" opacity="0.3" class="" /><circle cx="686" cy="110" r="2" fill="#1F242C" opacity="0.3" class="" /><circle cx="686" cy="128" r="2" fill="#1F242C" opacity="0.3" class="" /><circle cx="704" cy="20" r="2" fill="#1F242C" opacity="0.3" class="" /><circle cx="704" cy="38" r="2" fill="#1F242C" opacity="0.3" class="" /><circle cx="704" cy="56" r="2" fill="#1F242C" opacity="0.3" class="" /><circle cx="704" cy="74" r="4" fill="#391800" opacity="0.6" class="" /><circle cx="704" cy="92" r="4" fill="#391800" opacity="0.6" class="" /><circle cx="704" cy="110" r="4" fill="#391800" opacity="0.6" class="" /><circle cx="704" cy="128" r="2" fill="#1F242C" opacity="0.3" class="" /><circle cx="722" cy="20" r="2" fill="#1F242C" opacity="0.3" class="" /><circle cx="722" cy="38" r="4" fill="#391800" opacity="0.6" class="" /><circle cx="722" cy="56" r="2" fill="#1F242C" opacity="0.3" class="" /><circle cx="722" cy="74" r="2" fill="#1F242C" opacity="0.3" class="" /><circle cx="722" cy="92" r="2" fill="#1F242C" opacity="0.3" class="" /><circle cx="722" cy="110" r="2" fill="#1F242C" opacity="0.3" class="" /><circle cx="722" cy="128" r="2" fill="#1F242C" opacity="0.3" class="" /><circle cx="740" cy="20" r="2" fill="#1F242C" opacity="0.3" class="" /><circle cx="740" cy="38" r="2" fill="#1F242C" opacity="0.3" class="" /><circle cx="740" cy="56" r="2" fill="#1F242C" opacity="0.3" class="" /><circle cx="740" cy="74" r="2" fill="#1F242C" opacity="0.3" class="" /><circle cx="740" cy="92" r="2" fill="#1F242C" opacity="0.3" class="" /><circle cx="740" cy="110" r="2" fill="#1F242C" opacity="0.3" class="" /><circle cx="740" cy="128" r="2" fill="#1F242C" opacity="0.3" class="" /><circle cx="758" cy="20" r="2" fill="#1F242C" opacity="0.3" class="" /><circle cx="758" cy="38" r="2" fill="#1F242C" opacity="0.3" class="" /><circle cx="758" cy="56" r="2" fill="#1F242C" opacity="0.3" class="" /><circle cx="758" cy="74" r="2" fill="#1F242C" opacity="0.3" class="" /><circle cx="758" cy="92" r="2" fill="#1F242C" opacity="0.3" class="" /><circle cx="758" cy="110" r="2" fill="#1F242C" opacity="0.3" class="" /><circle cx="758" cy="128" r="2" fill="#1F242C" opacity="0.3" class="" /><circle cx="776" cy="20" r="2" fill="#1F242C" opacity="0.3" class="" /><circle cx="776" cy="38" r="2" fill="#1F242C" opacity="0.3" class="" /><circle cx="776" cy="56" r="2" fill="#1F242C" opacity="0.3" class="" /><circle cx="776" cy="74" r="2" fill="#1F242C" opacity="0.3" class="" /><circle cx="776" cy="92" r="2" fill="#1F242C" opacity="0.3" class="" /><circle cx="776" cy="110" r="2" fill="#1F242C" opacity="0.3" class="" /><circle cx="776" cy="128" r="2" fill="#1F242C" opacity="0.3" class="" /><circle cx="794" cy="20" r="2" fill="#1F242C" opacity="0.3" class="" /><circle cx="794" cy="38" r="2" fill="#1F242C" opacity="0.3" class="" /><circle cx="794" cy="56" r="2" fill="#1F242C" opacity="0.3" class="" /><circle cx="794" cy="74" r="2" fill="#1F242C" opacity="0.3" class="" /><circle cx="794" cy="92" r="2" fill="#1F242C" opacity="0.3" class="" /><circle cx="794" cy="110" r="2" fill="#1F242C" opacity="0.3" class="" /><circle cx="794" cy="128" r="2" fill="#1F242C" opacity="0.3" class="" /><circle cx="812" cy="20" r="2" fill="#1F242C" opacity="0.3" class="" /><circle cx="812" cy="38" r="2" fill="#1F242C" opacity="0.3" class="" /><circle cx="812" cy="56" r="2" fill="#1F242C" opacity="0.3" class="" /><circle cx="812" cy="74" r="2" fill="#1F242C" opacity="0.3" class="" /><circle cx="812" cy="92" r="2" fill="#1F242C" opacity="0.3" class="" /><circle cx="812" cy="110" r="2" fill="#1F242C" opacity="0.3" class="" /><circle cx="812" cy="128" r="2" fill="#1F242C" opacity="0.3" class="" /><circle cx="830" cy="20" r="2" fill="#1F242C" opacity="0.3" class="" /><circle cx="830" cy="38" r="2" fill="#1F242C" opacity="0.3" class="" /><circle cx="830" cy="56" r="2" fill="#1F242C" opacity="0.3" class="" /><circle cx="830" cy="74" r="2" fill="#1F242C" opacity="0.3" class="" /><circle cx="830" cy="92" r="2" fill="#1F242C" opacity="0.3" class="" /><circle cx="830" cy="110" r="2" fill="#1F242C" opacity="0.3" class="" /><circle cx="830" cy="128" r="2" fill="#1F242C" opacity="0.3" class="" /><circle cx="848" cy="20" r="2" fill="#1F242C" opacity="0.3" class="" /><circle cx="848" cy="38" r="2" fill="#1F242C" opacity="0.3" class="" /><circle cx="848" cy="56" r="2" fill="#1F242C" opacity="0.3" class="" /><circle cx="848" cy="74" r="2" fill="#1F242C" opacity="0.3" class="" /><circle cx="848" cy="92" r="4" fill="#391800" opacity="0.6" class="" /><circle cx="848" cy="110" r="2" fill="#1F242C" opacity="0.3" class="" /><circle cx="848" cy="128" r="2" fill="#1F242C" opacity="0.3" class="" /><circle cx="866" cy="20" r="2" fill="#1F242C" opacity="0.3" class="" /><circle cx="866" cy="38" r="2" fill="#1F242C" opacity="0.3" class="" /><circle cx="866" cy="56" r="2" fill="#1F242C" opacity="0.3" class="" /><circle cx="866" cy="74" r="2" fill="#1F242C" opacity="0.3" class="" /><circle cx="866" cy="92" r="2" fill="#1F242C" opacity="0.3" class="" /><circle cx="866" cy="110" r="2" fill="#1F242C" opacity="0.3" class="" /><circle cx="866" cy="128" r="2" fill="#1F242C" opacity="0.3" class="" /><circle cx="884" cy="20" r="2" fill="#1F242C" opacity="0.3" class="" /><circle cx="884" cy="38" r="2" fill="#1F242C" opacity="0.3" class="" /><circle cx="884" cy="56" r="2" fill="#1F242C" opacity="0.3" class="" /><circle cx="884" cy="74" r="2" fill="#1F242C" opacity="0.3" class="" /><circle cx="884" cy="92" r="2" fill="#1F242C" opacity="0.3" class="" /><circle cx="884" cy="110" r="2" fill="#1F242C" opacity="0.3" class="" /><circle cx="884" cy="128" r="2" fill="#1F242C" opacity="0.3" class="" /><circle cx="902" cy="20" r="2" fill="#1F242C" opacity="0.3" class="" /><circle cx="902" cy="38" r="2" fill="#1F242C" opacity="0.3" class="" /><circle cx="902" cy="56" r="7.5" fill="#FF2200" opacity="1.0" class="glow" /><circle cx="902" cy="74" r="7.5" fill="#FF2200" opacity="1.0" class="glow" /><circle cx="902" cy="92" r="7.5" fill="#FF2200" opacity="1.0" class="glow" /><circle cx="902" cy="110" r="7.5" fill="#FF2200" opacity="1.0" class="glow" /><circle cx="902" cy="128" r="6" fill="#FF6B00" opacity="0.8" class="glow" /><circle cx="920" cy="20" r="4" fill="#391800" opacity="0.6" class="" /><circle cx="920" cy="38" r="7.5" fill="#FF2200" opacity="1.0" class="glow" /><circle cx="920" cy="56" r="6" fill="#FF6B00" opacity="0.8" class="glow" /><circle cx="920" cy="74" r="7.5" fill="#FF2200" opacity="1.0" class="glow" /><circle cx="920" cy="92" r="7.5" fill="#FF2200" opacity="1.0" class="glow" /><circle cx="920" cy="110" r="6" fill="#FF6B00" opacity="0.8" class="glow" /><circle cx="920" cy="128" r="4" fill="#391800" opacity="0.6" class="" /><circle cx="938" cy="20" r="6" fill="#FF6B00" opacity="0.8" class="glow" /><circle cx="938" cy="38" r="2" fill="#1F242C" opacity="0.3" class="" /><circle cx="938" cy="56" r="7.5" fill="#FF2200" opacity="1.0" class="glow" /><circle cx="938" cy="74" r="2" fill="#1F242C" opacity="0.3" class="" /><circle cx="938" cy="92" r="2" fill="#1F242C" opacity="0.3" class="" /><circle cx="938" cy="110" r="2" fill="#1F242C" opacity="0.3" class="" /><circle cx="938" cy="128" r="2" fill="#1F242C" opacity="0.3" class="" /><circle cx="956" cy="20" r="2" fill="#1F242C" opacity="0.3" class="" /></svg>